<?xml version="1.0" standalone="no"?>
<!DOCTYPE svg PUBLIC "-//W3C//DTD SVG 20010904//EN"
 "http://www.w3.org/TR/2001/REC-SVG-20010904/DTD/svg10.dtd">
<svg version="1.0" xmlns="http://www.w3.org/2000/svg"
 width="83.000000pt" height="99.000000pt" viewBox="0 0 83.000000 99.000000"
 preserveAspectRatio="xMidYMid meet">
<metadata>
Created by potrace 1.16, written by Peter Selinger 2001-2019
</metadata>
<g transform="translate(0.000000,99.000000) scale(0.100000,-0.100000)"
fill="#000000" stroke="none">
<path d="M0 495 l0 -495 415 0 415 0 0 495 0 495 -415 0 -415 0 0 -495z m310
-365 c0 -5 -12 -10 -27 -11 l-28 0 25 -11 c25 -11 25 -11 3 -15 -34 -6 -29
-33 5 -33 24 0 28 4 28 28 -1 23 4 28 28 30 16 2 32 -2 37 -10 7 -10 9 -10 9
0 0 19 30 14 30 -5 1 -17 1 -17 14 0 21 27 36 20 36 -15 l1 -33 14 33 c18 41
27 40 48 -2 18 -39 13 -50 -14 -33 -13 8 -22 9 -27 2 -11 -16 -42 -14 -42 2 0
12 -3 13 -14 4 -11 -9 -15 -9 -19 1 -4 9 -6 8 -6 -3 -1 -18 -32 -19 -54 -1
-12 10 -16 10 -20 -1 -3 -8 -23 -14 -50 -15 l-45 -3 -4 46 c-2 26 -1 48 1 51
9 9 71 4 71 -6z"/>
</g>
</svg>
