<?xml version="1.0" standalone="no"?>
<!DOCTYPE svg PUBLIC "-//W3C//DTD SVG 20010904//EN"
 "http://www.w3.org/TR/2001/REC-SVG-20010904/DTD/svg10.dtd">
<svg version="1.0" xmlns="http://www.w3.org/2000/svg"
 width="85.000000pt" height="99.000000pt" viewBox="0 0 85.000000 99.000000"
 preserveAspectRatio="xMidYMid meet">
<metadata>
Created by potrace 1.16, written by Peter Selinger 2001-2019
</metadata>
<g transform="translate(0.000000,99.000000) scale(0.100000,-0.100000)"
fill="#000000" stroke="none">
<path d="M0 495 l0 -495 425 0 425 0 0 495 0 495 -425 0 -425 0 0 -495z m576
244 c5 -8 9 -8 14 1 5 8 13 9 21 4 8 -5 18 -9 24 -9 5 0 13 -22 18 -50 14 -87
11 -105 -23 -134 -29 -24 -32 -30 -31 -89 0 -49 -4 -67 -20 -83 -20 -20 -27
-45 -9 -34 6 3 8 -10 5 -34 -2 -23 1 -44 7 -47 7 -4 8 -2 4 4 -15 24 34 3 72
-31 34 -31 26 -43 -9 -13 -30 26 -30 26 -51 6 -12 -11 -24 -17 -28 -15 -4 3
-13 33 -20 67 -11 56 -13 61 -25 44 -8 -10 -11 -24 -8 -32 3 -8 -5 -23 -17
-34 -24 -21 -40 -19 -23 2 14 17 -30 88 -58 95 -10 3 -19 12 -19 19 0 20 17
17 42 -8 14 -14 23 -18 26 -10 2 7 13 10 28 6 15 -4 24 -2 24 5 0 6 -7 11 -15
11 -8 0 -15 4 -15 9 0 17 -65 76 -81 73 -9 -1 -22 5 -30 14 -26 32 54 4 84
-29 20 -23 27 -26 27 -14 0 20 11 22 27 6 14 -14 63 -20 63 -8 0 5 -12 9 -27
9 -16 0 -37 8 -48 16 -19 15 -19 16 12 9 18 -3 34 -2 38 4 3 6 -1 11 -9 11 -9
0 -16 9 -16 20 0 21 24 27 35 9 4 -6 13 1 21 16 21 40 18 48 -15 42 -36 -8
-147 47 -170 83 -15 23 -15 24 1 12 9 -8 22 -11 28 -7 5 3 24 -8 41 -25 17
-17 29 -24 25 -15 -3 9 -6 21 -6 26 0 5 -6 9 -14 9 -21 0 -30 19 -16 35 6 8 9
19 5 25 -3 5 2 10 12 10 11 0 24 5 31 12 15 15 16 -12 3 -60 -6 -19 -6 -32 -1
-32 5 0 6 -7 3 -17 -5 -12 -3 -14 7 -8 9 6 11 4 5 -5 -12 -20 23 -42 47 -29
14 7 24 7 34 -2 13 -10 17 -10 25 2 5 8 9 19 9 26 0 6 3 20 7 30 6 15 4 16 -8
6 -12 -10 -15 -7 -17 15 -1 21 0 24 8 12 8 -13 10 -13 10 1 0 30 -28 44 -61
32 -24 -10 -31 -9 -36 3 -11 30 17 59 33 33z m-376 -619 c0 -5 -12 -10 -27
-11 l-28 -1 29 -9 c17 -4 35 -4 40 0 6 5 37 9 68 9 44 0 60 -4 68 -16 9 -16 9
-16 10 1 0 15 20 23 45 17 6 -1 36 -2 67 -2 49 0 56 -2 52 -16 -5 -15 -4 -15
6 1 13 20 50 23 68 5 9 -9 12 -9 12 0 0 18 21 15 36 -5 13 -17 13 -17 14 0 0
33 20 17 20 -18 0 -38 -15 -45 -36 -17 -13 16 -13 16 -14 0 0 -19 -20 -26 -20
-8 0 6 -11 3 -24 -5 -23 -15 -26 -15 -47 6 -16 16 -21 18 -16 6 4 -11 1 -17
-8 -17 -8 0 -15 9 -15 19 0 17 -3 18 -24 8 -14 -7 -24 -16 -23 -21 3 -14 -42
-14 -55 1 -9 11 -13 12 -20 1 -8 -11 -10 -11 -15 0 -4 10 -8 10 -18 2 -22 -18
-60 -8 -63 16 -3 23 -38 39 -48 23 -10 -17 4 -39 21 -33 8 3 15 2 15 -4 0 -17
-27 -21 -48 -6 -11 8 -22 10 -24 5 -6 -17 -68 -18 -68 -1 0 6 11 10 25 10 14
0 25 5 25 10 0 6 -9 10 -19 10 -23 0 -35 15 -27 35 6 17 66 21 66 5z"/>
</g>
</svg>
