<?xml version="1.0" standalone="no"?>
<!DOCTYPE svg PUBLIC "-//W3C//DTD SVG 20010904//EN"
 "http://www.w3.org/TR/2001/REC-SVG-20010904/DTD/svg10.dtd">
<svg version="1.0" xmlns="http://www.w3.org/2000/svg"
 width="86.000000pt" height="98.000000pt" viewBox="0 0 86.000000 98.000000"
 preserveAspectRatio="xMidYMid meet">
<metadata>
Created by potrace 1.16, written by Peter Selinger 2001-2019
</metadata>
<g transform="translate(0.000000,98.000000) scale(0.100000,-0.100000)"
fill="#000000" stroke="none">
<path d="M0 490 l0 -490 430 0 430 0 0 490 0 490 -430 0 -430 0 0 -490z m680
31 c0 -6 -4 -13 -10 -16 -5 -3 -10 -21 -10 -38 0 -18 -11 -52 -25 -77 -14 -25
-43 -82 -66 -128 -23 -45 -44 -84 -48 -87 -4 -2 -18 3 -30 11 -21 15 -22 17
-5 35 10 11 24 17 31 15 21 -8 26 14 7 29 -18 14 -18 14 4 15 25 0 26 3 11 32
-10 18 -9 20 5 15 9 -4 16 -2 16 3 0 6 7 10 16 10 14 0 14 3 3 16 -12 15 -14
98 -3 137 5 16 7 16 22 -3 16 -19 19 -20 40 -5 12 9 22 23 22 31 0 8 5 14 10
14 6 0 10 -4 10 -9z m-280 -418 c1 -17 1 -17 14 0 7 9 21 17 31 17 17 0 17 -1
1 -19 -15 -16 -16 -23 -5 -42 l12 -23 15 32 c16 32 42 44 42 19 0 -7 6 -21 13
-32 13 -16 14 -15 9 13 -3 25 -1 32 12 32 9 0 19 -7 22 -15 4 -8 11 -15 16
-15 6 0 8 7 4 15 -3 9 0 15 10 15 8 0 12 -4 9 -10 -3 -5 -1 -10 4 -10 6 0 11
5 11 10 0 6 14 10 30 10 28 0 30 -3 30 -35 0 -32 -2 -35 -30 -35 -16 0 -30 5
-30 11 0 8 -5 7 -15 -1 -13 -10 -19 -9 -37 6 -18 16 -20 16 -15 3 4 -12 -1
-18 -18 -22 -14 -2 -26 0 -28 6 -2 7 -13 7 -34 0 -26 -10 -33 -8 -52 10 -18
19 -21 19 -21 4 0 -38 -18 -14 -22 28 -2 31 1 45 9 45 7 0 13 -8 13 -17z"/>
</g>
</svg>
