<?xml version="1.0" standalone="no"?>
<!DOCTYPE svg PUBLIC "-//W3C//DTD SVG 20010904//EN"
 "http://www.w3.org/TR/2001/REC-SVG-20010904/DTD/svg10.dtd">
<svg version="1.0" xmlns="http://www.w3.org/2000/svg"
 width="85.000000pt" height="99.000000pt" viewBox="0 0 85.000000 99.000000"
 preserveAspectRatio="xMidYMid meet">
<metadata>
Created by potrace 1.16, written by Peter Selinger 2001-2019
</metadata>
<g transform="translate(0.000000,99.000000) scale(0.100000,-0.100000)"
fill="#000000" stroke="none">
<path d="M0 495 l0 -495 425 0 424 0 0 495 0 495 -425 0 -424 0 0 -495z m234
190 c70 -19 136 -35 145 -35 9 0 21 -4 27 -10 5 -5 45 -15 89 -21 74 -10 195
-35 288 -60 27 -7 37 -15 37 -29 0 -24 2 -24 -80 -4 -43 10 -66 11 -68 4 -5
-14 -23 -13 -20 2 4 17 -43 23 -53 7 -11 -18 9 -39 37 -39 36 0 31 -39 -13
-118 -21 -37 -49 -94 -63 -126 -33 -78 -51 -89 -86 -54 -32 32 -26 58 13 58
21 0 24 3 15 12 -18 18 -15 27 8 21 16 -4 19 -2 14 11 -3 9 -10 13 -15 10 -5
-3 -9 0 -9 5 0 6 12 11 28 12 l27 0 -25 10 c-14 6 -29 17 -33 25 -6 11 -17 13
-38 9 -28 -6 -29 -5 -23 23 4 17 0 41 -9 58 -8 16 -17 43 -20 60 -6 30 -6 30
36 28 23 -2 48 -3 55 -3 6 -1 12 -7 12 -15 0 -7 7 -19 15 -26 19 -16 20 -50 1
-50 -17 0 -28 -24 -20 -45 4 -8 14 -15 24 -15 11 0 22 -4 25 -10 8 -13 35 -13
35 0 0 6 -11 16 -25 22 -28 12 -33 28 -10 28 15 0 21 16 28 88 5 39 3 43 -21
48 -90 21 -472 117 -499 125 -19 6 -33 17 -33 26 0 20 34 15 204 -32z"/>
</g>
</svg>
