<?xml version="1.0" standalone="no"?>
<!DOCTYPE svg PUBLIC "-//W3C//DTD SVG 20010904//EN"
 "http://www.w3.org/TR/2001/REC-SVG-20010904/DTD/svg10.dtd">
<svg version="1.0" xmlns="http://www.w3.org/2000/svg"
 width="84.000000pt" height="100.000000pt" viewBox="0 0 84.000000 100.000000"
 preserveAspectRatio="xMidYMid meet">
<metadata>
Created by potrace 1.16, written by Peter Selinger 2001-2019
</metadata>
<g transform="translate(0.000000,100.000000) scale(0.100000,-0.100000)"
fill="#000000" stroke="none">
<path d="M0 500 l0 -500 418 0 417 0 0 500 0 500 -417 0 -418 0 0 -500z m450
-392 c-25 -41 -25 -47 0 -45 15 1 20 8 20 29 l0 28 100 -1 c105 -2 123 -9 114
-46 -8 -30 -41 -36 -66 -11 -16 16 -20 17 -15 5 4 -11 1 -17 -7 -17 -8 0 -16
6 -18 12 -4 10 -9 9 -20 -3 -15 -14 -30 -15 -151 -10 -18 1 -18 3 2 36 20 34
20 35 1 35 -11 0 -20 5 -20 10 0 6 18 10 40 10 l40 0 -20 -32z"/>
</g>
</svg>
