<?xml version="1.0" standalone="no"?>
<!DOCTYPE svg PUBLIC "-//W3C//DTD SVG 20010904//EN"
 "http://www.w3.org/TR/2001/REC-SVG-20010904/DTD/svg10.dtd">
<svg version="1.0" xmlns="http://www.w3.org/2000/svg"
 width="80.000000pt" height="100.000000pt" viewBox="0 0 80.000000 100.000000"
 preserveAspectRatio="xMidYMid meet">
<metadata>
Created by potrace 1.16, written by Peter Selinger 2001-2019
</metadata>
<g transform="translate(0.000000,100.000000) scale(0.100000,-0.100000)"
fill="#000000" stroke="none">
<path d="M0 500 l0 -500 400 0 400 0 0 500 0 500 -400 0 -400 0 0 -500z m296
418 c26 -9 39 -9 59 0 33 15 71 -1 89 -38 44 -87 56 -118 56 -138 0 -15 -4
-21 -12 -16 -6 4 -24 8 -41 10 -16 1 -34 7 -40 13 -14 14 -30 14 -21 0 4 -8
-3 -9 -25 -4 -26 5 -30 4 -25 -9 5 -12 2 -15 -12 -9 -14 5 -16 3 -11 -11 4
-10 2 -16 -6 -15 -35 4 -45 -2 -40 -23 3 -13 1 -19 -4 -13 -4 6 -20 16 -35 22
-20 9 -25 17 -21 35 3 15 2 19 -4 11 -7 -9 -21 -2 -54 27 -24 22 -57 46 -74
55 l-30 16 40 -7 c57 -8 76 -14 71 -23 -8 -12 7 -26 52 -48 34 -17 40 -18 28
-5 -14 16 -16 21 -16 41 0 12 -119 55 -147 53 -13 -1 -23 2 -23 7 0 14 75 1
139 -24 63 -24 80 -26 35 -2 -22 12 -24 15 -10 26 14 11 13 15 -2 31 -9 10
-33 23 -52 29 -34 10 -34 10 10 4 25 -3 62 -12 84 -19 50 -18 57 -11 15 15
-38 23 -23 28 27 9z m241 -259 c26 -24 50 -38 59 -35 8 3 21 9 29 12 12 5 15
-5 15 -55 l0 -61 -39 0 c-27 0 -41 -5 -45 -16 -9 -24 3 -54 21 -54 26 0 10
-72 -28 -127 -19 -26 -42 -65 -51 -85 -9 -21 -19 -38 -21 -38 -2 0 -18 7 -35
16 -46 23 -61 48 -52 89 9 38 3 81 -15 110 -26 42 -37 93 -25 116 l12 21 26
-24 c15 -14 44 -35 65 -47 41 -25 45 -36 20 -64 -17 -18 -17 -20 11 -42 23
-19 33 -21 47 -12 13 8 15 15 7 24 -13 16 -17 103 -5 120 11 15 1 33 -19 33
-8 0 -14 4 -14 8 0 4 -13 16 -30 25 -48 29 -60 46 -60 88 l0 39 41 0 c35 0 49
-7 86 -41z"/>
</g>
</svg>
